HIERARCHY
ROOT Hips
{
	OFFSET	0.00	0.00	0.00
	CHANNELS 6 Xposition Yposition Zposition Zrotation Xrotation Yrotation
	JOINT LeftUpperLeg
	{
		OFFSET	 0.100000	-0.066564	-0.000554
		CHANNELS 3 Zrotation Xrotation Yrotation
		JOINT LeftLowerLeg
		{
			OFFSET	 0.002447	-0.463436	-0.005172
			CHANNELS 3 Zrotation Xrotation Yrotation
			JOINT LeftFoot
			{
				OFFSET	-0.002447	-0.420480	-0.020576
				CHANNELS 3 Zrotation Xrotation Yrotation
				JOINT LeftToes
				{
					OFFSET	 0.003734	-0.104922	 0.126407
					CHANNELS 3 Zrotation Xrotation Yrotation
					End Site
					{
						OFFSET	 0.000000	 0.000000	 0.059955
					}
				}
			}
		}
	}
	JOINT RightUpperLeg
	{
		OFFSET	-0.100000	-0.066564	-0.000554
		CHANNELS 3 Zrotation Xrotation Yrotation
		JOINT RightLowerLeg
		{
			OFFSET	-0.002447	-0.463436	-0.005146
			CHANNELS 3 Zrotation Xrotation Yrotation
			JOINT RightFoot
			{
				OFFSET	 0.002447	-0.420479	-0.020602
				CHANNELS 3 Zrotation Xrotation Yrotation
				JOINT RightToes
				{
					OFFSET	-0.003734	-0.104922	 0.126407
					CHANNELS 3 Zrotation Xrotation Yrotation
					End Site
					{
						OFFSET	-0.000000	 0.000000	 0.059955
					}
				}
			}
		}
	}
	JOINT Spine
	{
		OFFSET	 0.000000	 0.099235	-0.012273
		CHANNELS 3 Zrotation Xrotation Yrotation
		JOINT Chest
		{
			OFFSET	-0.000001	 0.116455	-0.014223
			CHANNELS 3 Zrotation Xrotation Yrotation
			JOINT UpperChest
			{
				OFFSET	 0.000001	 0.133602	-0.016265
				CHANNELS 3 Zrotation Xrotation Yrotation
				JOINT LeftShoulder
				{
					OFFSET	 0.061058	 0.091105	 0.007056
					CHANNELS 3 Zrotation Xrotation Yrotation
					JOINT LeftUpperArm
					{
						OFFSET	 0.133942	-0.002659	-0.026009
						CHANNELS 3 Zrotation Xrotation Yrotation
						JOINT LeftLowerArm
						{
							OFFSET	 0.274047	 0.000000	 0.000000
							CHANNELS 3 Zrotation Xrotation Yrotation
							JOINT LeftHand
							{
								OFFSET	 0.276145	 0.000000	 0.000000
								CHANNELS 3 Zrotation Xrotation Yrotation
								End Site
								{
									OFFSET	 0.165687	 0.000000	 0.000000
								}
							}
						}
					}
				}
				JOINT Neck
				{
					OFFSET	 0.000000	 0.150325	 0.007929
					CHANNELS 3 Zrotation Xrotation Yrotation
					JOINT Head
					{
						OFFSET	 0.000000	 0.103218	 0.031424
						CHANNELS 3 Zrotation Xrotation Yrotation
						End Site
						{
							OFFSET	 0.000000	 0.061931	 0.018855
						}
					}
				}
				JOINT RightShoulder
				{
					OFFSET	-0.061057	 0.091105	 0.007056
					CHANNELS 3 Zrotation Xrotation Yrotation
					JOINT RightUpperArm
					{
						OFFSET	-0.133943	-0.002660	-0.026009
						CHANNELS 3 Zrotation Xrotation Yrotation
						JOINT RightLowerArm
						{
							OFFSET	-0.274047	 0.000000	 0.000000
							CHANNELS 3 Zrotation Xrotation Yrotation
							JOINT RightHand
							{
								OFFSET	-0.276145	 0.000000	 0.000000
								CHANNELS 3 Zrotation Xrotation Yrotation
								End Site
								{
									OFFSET	-0.165687	 0.000000	 0.000000
								}
							}
						}
					}
				}
			}
		}
	}
}
MOTION
Frames:    7
Frame Time: 0.03333334
-0.229490	 1.050110	-0.437160	 1.966254	 4.385408	 2.512378	 9.179355	-0.412035	 28.001880	-0.016186	 24.488020	-0.002677	 7.005807	 0.379906	 9.902783	 0.000357	-9.322808	 3.003835	-4.314206	-18.007290	-12.285560	 0.001466	 22.375530	 0.011817	 4.560283	-8.964391	-11.975500	-0.000019	 0.397135	 0.858666	 1.415444	-0.499890	-1.560013	-0.000000	 0.000000	 0.000000	 2.823638	-1.039100	-3.113526	 3.447171	 4.047195	-0.791327	-83.639240	-19.615620	-2.086641	-36.014370	 32.961690	-53.303740	-40.762620	 30.731430	 14.657660	 5.367098	-2.202541	-39.150840	 5.045268	-2.127296	-39.181060	 3.167676	 3.792267	-15.371450	 76.534310	-16.644930	 6.605783	 19.451910	 24.809200	 77.112200	-32.602580	 2.044208	-10.532080
-0.217410	 1.049860	-0.462890	 0.848170	 4.990916	 1.621704	 8.732947	 0.636436	 28.519780	 0.014277	 20.104950	-0.011621	-3.139721	-4.230522	 9.918757	 0.000061	-8.713064	 1.678355	-3.643076	-19.460800	-10.998730	 0.110598	 20.476450	-0.009149	 5.644018	-6.368613	-12.289830	 0.000027	 0.405536	 0.951785	 2.003073	-0.456036	-1.534669	-0.000000	 0.000000	 0.000000	 3.999055	-0.967100	-3.059923	 3.645097	 4.068730	-0.160054	-84.522400	-19.143980	-2.845378	-33.671390	 34.002480	-54.177660	-37.347770	 31.606900	 9.438417	 5.824961	-2.252287	-38.869870	 4.933844	-2.392467	-38.625530	 3.336533	 4.052177	-15.150150	 76.620700	-16.904150	 6.576268	 18.689610	 24.993470	 78.009830	-31.988880	 2.414834	-10.474490
-0.207490	 1.048620	-0.479990	 0.405669	 5.321550	 0.700418	 7.065039	 1.963958	 27.357340	 0.241485	 15.096150	-0.042888	-4.574379	-6.700583	 11.290480	 0.000058	-5.830729	 1.042435	-3.646129	-20.539780	-11.152660	 0.015429	 19.552600	 0.009390	 6.331479	-4.601947	-11.366580	-0.000210	 0.410269	 0.996849	 2.145046	-0.403945	-1.450267	-0.000000	 0.000000	 0.000000	 4.289219	-0.864938	-2.888307	 3.029324	 4.325072	 0.476197	-84.774360	-19.151080	-3.536172	-32.721810	 33.611900	-54.974610	-36.444160	 34.402190	 7.509725	 5.480047	-2.405237	-38.091460	 5.188083	-2.537185	-38.246300	 2.920119	 3.980735	-14.670670	 76.539540	-16.721270	 7.085808	 18.681630	 24.737940	 77.574310	-31.342660	 2.537977	-10.243900
-0.198700	 1.047460	-0.493370	 0.464353	 5.793383	-0.152005	 5.134856	 2.759759	 22.351490	-0.149455	 10.907860	 0.006525	-4.365230	-8.223564	 17.238300	 0.000788	-3.516186	 0.687861	-4.104243	-21.671100	-11.344010	 0.032938	 18.918490	 0.005955	 6.674774	-3.170169	-10.702310	 0.000257	 0.410840	 1.007417	 2.085078	-0.398343	-1.466933	-0.000000	 0.000000	 0.000000	 4.165758	-0.852135	-2.923810	 2.716856	 4.337870	 0.630615	-84.665830	-19.279050	-3.900733	-31.615040	 33.385410	-55.768070	-36.464350	 35.972550	 6.900491	 5.268009	-2.668618	-37.850080	 5.392323	-2.671632	-37.815800	 2.827312	 3.793383	-14.694090	 76.593180	-16.662640	 7.610975	 18.654150	 24.944040	 76.842850	-31.117840	 2.606774	-9.933133
-0.198700	 1.047460	-0.493370	 0.464353	 5.793383	-0.152005	 5.134856	 2.759759	 22.351490	-0.149455	 10.907860	 0.006525	-4.365230	-8.223564	 17.238300	 0.000788	-3.516186	 0.687861	-4.104243	-21.671100	-11.344010	 0.032938	 18.918490	 0.005955	 6.674774	-3.170169	-10.702310	 0.000257	 0.410840	 1.007417	 2.085078	-0.398343	-1.466933	-0.000000	 0.000000	 0.000000	 4.165758	-0.852135	-2.923810	 2.716856	 4.337870	 0.630615	-84.665830	-19.279050	-3.900733	-31.615040	 33.385410	-55.768070	-36.464350	 35.972550	 6.900491	 5.268009	-2.668618	-37.850080	 5.392323	-2.671632	-37.815800	 2.827312	 3.793383	-14.694090	 76.593180	-16.662640	 7.610975	 18.654150	 24.944040	 76.842850	-31.117840	 2.606774	-9.933133
-0.190490	 1.046430	-0.506360	 0.465652	 6.296013	-1.058518	 3.347514	 4.080480	 21.094570	-0.067010	 5.580027	-0.000122	-3.159127	-8.170447	 20.388540	 0.000880	-1.168618	 0.480250	-4.336566	-22.618180	-11.643210	 0.022768	 17.843890	 0.008151	 6.481367	-1.437501	-9.883491	-0.000621	 0.406031	 0.948778	 2.017086	-0.383256	-1.467370	-0.000000	 0.000000	 0.000000	 4.030848	-0.819947	-2.925688	 2.758652	 4.460956	 0.969526	-84.327060	-19.476160	-4.269802	-31.313130	 32.941100	-55.813540	-36.964050	 36.849700	 7.219658	 5.496495	-2.723126	-37.411600	 5.631075	-2.749547	-37.409160	 3.121204	 3.809867	-14.591410	 76.843930	-16.535320	 8.004055	 18.332210	 25.265470	 76.183720	-30.469910	 2.592644	-9.356614
-0.183310	 1.045750	-0.519420	 0.317126	 6.842117	-1.847739	 2.295663	 4.596275	 23.414590	 0.007473	 1.877958	-0.001868	-1.522002	-8.059370	 20.120170	-0.000397	 0.411489	 0.989030	-4.327845	-23.200670	-12.215650	 0.022997	 16.019380	 0.008312	 6.684823	 0.487194	-8.969536	-0.000582	 0.407785	 0.973186	 1.985955	-0.346877	-1.511127	-0.000000	 0.000000	 0.000000	 3.967705	-0.745984	-3.014920	 2.994484	 4.677569	 0.993968	-83.778310	-19.607680	-4.706312	-31.518010	 31.483450	-56.698340	-38.233740	 36.619050	 7.809444	 5.357450	-2.737866	-37.153470	 5.428292	-2.799823	-37.058790	 2.680864	 3.296235	-13.683330	 77.372000	-16.450650	 7.475905	 18.145930	 24.932730	 75.411320	-29.493400	 2.149050	-8.477894
